<svg width="264" height="185" viewBox="0 0 264 185" fill="none" xmlns="http://www.w3.org/2000/svg">
<path d="M91.6852 158.932C91.6852 156.409 89.9875 154.727 87.441 154.727H13.5917C11.0452 154.727 9.34753 156.409 9.34753 158.932C9.34753 161.455 11.0452 163.136 13.5917 163.136H87.441C89.9875 163.136 91.6852 161.034 91.6852 158.932Z" fill="#333333"/>
<path d="M30.5688 175.75H22.0804C19.5339 175.75 17.8362 177.432 17.8362 179.955C17.8362 182.477 19.5339 184.159 22.0804 184.159H30.5688C33.1153 184.159 34.813 182.477 34.813 179.955C34.813 177.432 33.1153 175.75 30.5688 175.75Z" fill="#333333"/>
<path d="M50.5164 137.909C50.5164 135.386 48.8187 133.705 46.2722 133.705H5.10345C2.55693 133.705 0.859253 135.386 0.859253 137.909C0.859253 140.432 2.55693 142.114 5.10345 142.114H46.2722C48.8187 142.114 50.5164 140.011 50.5164 137.909Z" fill="#333333"/>
<path d="M261.454 145.057C260.18 142.534 257.634 140.432 255.087 139.17L222.831 126.977L209.674 122.352C205.854 120.67 202.459 118.148 200.337 114.784L189.302 96.7046C191.424 96.2841 192.697 94.6023 192.697 92.5C192.697 89.9773 191 88.2955 188.453 88.2955H184.209L179.116 79.8864C181.238 79.466 182.511 77.7841 182.511 75.6819C182.511 73.1591 180.814 71.4773 178.267 71.4773H174.023L169.779 64.75C171.476 64.3296 172.75 62.6478 172.75 60.966C172.75 58.4432 171.052 56.7614 168.505 56.7614H164.686L159.168 47.9319C159.168 47.9319 159.168 47.5114 158.744 47.5114C153.651 41.6251 146.86 38.6819 139.645 39.5228C133.279 40.3637 128.186 44.1478 126.063 48.7728C125.639 50.0341 125.639 51.2955 126.488 52.5569L161.715 112.261C162.139 113.102 162.988 113.943 163.837 113.943L207.128 130.341H207.552L220.285 134.966L252.116 147.159C252.965 147.58 253.814 148 254.238 149.261C255.936 152.625 255.936 155.989 253.814 159.352H184.633C180.389 159.352 176.145 158.091 172.75 155.568L54.3364 68.5341C54.3364 68.5341 56.034 67.6932 58.1561 64.75C60.2782 61.8069 61.1271 58.0228 61.1271 54.2387L57.3073 18.9205L62.4003 10.9319C63.6736 9.25006 66.2201 8.8296 67.9178 10.091C69.1911 11.3523 74.2841 15.5569 86.5923 35.3182C92.9586 44.5682 103.145 51.2955 114.604 52.9773C116.726 53.3978 119.273 51.716 119.697 49.6137C120.122 47.5114 118.424 44.9887 116.302 44.5682C107.389 42.8864 98.9005 37.841 93.8075 30.2728C78.9527 7.56824 74.7085 4.20461 73.0109 2.94324C67.4934 -0.840848 59.8538 0.420515 55.6096 5.88642L29.72 46.6705C28.0223 49.1932 27.5979 52.1364 28.0223 55.0796C25.4758 55.9205 22.9292 57.1819 21.656 59.7046L14.8653 70.216C11.0455 75.6819 12.7431 83.25 18.2606 87.0341C22.0804 89.9773 30.1444 95.0228 42.0282 102.591C42.877 103.011 43.7258 103.432 44.1503 103.432C45.4235 103.432 46.6968 102.591 47.5456 101.33C48.8189 99.2273 48.3945 96.7046 46.2724 95.4432C34.813 87.875 26.749 82.8296 22.9292 79.8864C21.2316 78.625 20.8071 76.5228 22.0804 74.4205L28.4467 64.75C29.72 63.0682 32.2665 62.6478 33.9642 63.9091L167.232 162.295C172.325 166.08 178.267 167.761 184.209 167.761H242.779C233.866 171.966 221.558 175.75 210.948 175.75H196.093H183.785C176.569 175.75 169.354 173.648 163.412 169.864C138.796 154.307 92.9586 125.295 59.4294 103.852C57.3073 102.591 54.7608 103.011 53.4875 105.114C52.2143 107.216 52.6387 109.739 54.7608 111C87.4412 132.023 132.005 160.193 157.046 176.17H47.5456C44.9991 176.17 43.3014 177.852 43.3014 180.375C43.3014 182.898 44.9991 184.58 47.5456 184.58H183.785H196.093H210.523C227.924 184.58 252.965 175.33 259.331 166.5C264.849 158.932 265.273 151.784 261.454 145.057ZM167.657 107.216L134.552 51.2955C135.825 50.0341 137.947 48.7728 140.494 48.3523C143.04 47.9319 147.709 48.3523 151.953 52.9773L154.5 57.1819H150.68C148.133 57.1819 146.436 58.8637 146.436 61.3864C146.436 63.9091 148.133 65.591 150.68 65.591H159.593L163.837 72.3182H160.441C157.895 72.3182 156.197 74 156.197 76.5228C156.197 79.0455 157.895 80.7273 160.441 80.7273H168.93L174.023 88.7159H170.628C168.081 88.7159 166.383 90.3978 166.383 92.9205C166.383 95.4432 168.081 97.125 170.628 97.125H179.116L191 115.625L167.657 107.216ZM36.9351 51.2955L50.0922 30.6932L52.6387 55.0796C52.6387 56.7614 52.2143 58.4432 51.3654 59.7046C50.5166 60.966 48.8189 64.3296 44.9991 61.3864C44.9991 61.3864 42.877 60.125 39.0572 57.1819C36.5107 55.0796 36.0863 52.9773 36.9351 51.2955Z" fill="#333333"/>
</svg>
